Coordinates
version=1
nRows=13
nColumns=40
inDegrees=yes

Units are S.I. units (second, meters, Newtons, ...)
Angles are in degrees.

endheader
time	pelvis_tilt	pelvis_list	pelvis_rotation	pelvis_tx	pelvis_ty	pelvis_tz	hip_flexion_r	hip_adduction_r	hip_rotation_r	knee_angle_r	knee_angle_r_beta	ankle_angle_r	subtalar_angle_r	mtp_angle_r	hip_flexion_l	hip_adduction_l	hip_rotation_l	knee_angle_l	knee_angle_l_beta	ankle_angle_l	subtalar_angle_l	mtp_angle_l	lumbar_extension	lumbar_bending	lumbar_rotation	arm_flex_r	arm_add_r	arm_rot_r	elbow_flex_r	pro_sup_r	wrist_flex_r	wrist_dev_r	arm_flex_l	arm_add_l	arm_rot_l	elbow_flex_l	pro_sup_l	wrist_flex_l	wrist_dev_l
     17.39000000	     -2.30246878	     -3.85759633	      4.25763648	      1.01930463	      0.93007374	      0.41889368	     25.05944194	     -5.65609517	     -5.58926449	     66.43864378	     66.43864378	     -1.18078295	    -15.79380561	     -0.14284665	     17.06405784	     -5.35006568	     -4.63974239	     24.35091278	     24.35091278	     11.63904372	    -11.67504101	     -0.73327316	    -10.75502201	      2.51986306	      2.33158634	      9.85697364	    -12.17855308	      5.09783320	     34.17403504	     45.01237173	      0.00000000	      0.00000000	     11.78170235	    -15.71101222	      3.53787987	     43.84062208	     45.06102122	      0.00000000	      0.00000000
     17.40350000	     -2.37998715	     -3.89889073	      3.80818592	      1.01877738	      0.93048437	      0.41838369	     26.16739810	     -5.62686463	     -5.31870837	     66.04534298	     66.04534298	     -1.06403916	    -15.65147426	     -0.22744318	     16.53866958	     -5.39613392	     -4.86801701	     24.05695411	     24.05695411	     11.91004980	    -11.86850118	     -0.71370985	    -10.77120661	      2.75903090	      2.25532959	      8.81164628	    -12.77969804	      4.95516726	     33.25678982	     45.05936831	      0.00000000	      0.00000000	     12.23712081	    -15.75901634	      3.54721737	     44.38937098	     45.08038146	      0.00000000	      0.00000000
     17.41700000	     -2.39101089	     -3.90943150	      3.34672348	      1.01827837	      0.93093932	      0.41795196	     27.13956334	     -5.61124921	     -5.08803600	     65.50262972	     65.50262972	     -0.86525754	    -15.51520939	     -0.04771125	     15.94602855	     -5.39418539	     -5.02886074	     23.77842099	     23.77842099	     12.11342065	    -12.26278647	     -0.67431887	    -10.88548080	      2.92249638	      2.08379793	      8.69967104	    -12.73991821	      2.55684366	     29.87891860	     45.44024879	      0.00000000	      0.00000000	     12.18687461	    -16.35010596	      4.71497345	     46.30402364	     45.10958042	      0.00000000	      0.00000000
     17.43050000	     -2.42497672	     -3.93243687	      2.91217667	      1.01778749	      0.93122980	      0.41755559	     28.04291997	     -5.59434003	     -4.95456594	     64.73290109	     64.73290109	     -0.69187098	    -15.45804205	     -0.02288708	     15.48315250	     -5.44085202	     -5.29164062	     23.68507048	     23.68507048	     12.39882715	    -12.46031894	     -0.70635640	    -10.94730548	      3.12909786	      1.58287366	      7.94217076	    -13.24717329	      2.45161260	     29.48908395	     45.45934515	      0.00000000	      0.00000000	     12.53849344	    -16.55057139	      4.64813557	     46.49764001	     45.12368770	      0.00000000	      0.00000000
     17.44400000	     -2.47122906	     -3.98100909	      2.40726115	      1.01738764	      0.93170545	      0.41744132	     28.82831405	     -5.48424144	     -4.87090364	     63.59067619	     63.59067619	     -0.48184267	    -15.60621893	      0.26749772	     14.80386356	     -5.48726561	     -5.53532045	     23.16596289	     23.16596289	     12.59657578	    -12.67242640	     -0.54113245	    -11.08473563	      3.31997268	      2.28662843	      6.73592529	    -14.02500961	      1.97518500	     28.10861866	     45.55417723	      0.00000000	      0.00000000	     13.09527263	    -16.37058002	      4.65096889	     47.74890306	     45.15798286	      0.00000000	      0.00000000
     17.45750000	     -2.55515477	     -4.00758170	      1.93946566	      1.01698792	      0.93195343	      0.41746209	     29.56551019	     -5.43737653	     -4.93368511	     62.18505984	     62.18505984	      0.10359019	    -15.55685921	      1.28845622	     14.29293922	     -5.53562062	     -5.80049353	     22.87370431	     22.87370431	     12.81399094	    -12.87729305	     -0.51366652	    -11.14813676	      3.49874968	      2.18721792	      7.13557018	    -13.39329634	     -5.49752102	     24.44929744	     46.43487112	      0.00000000	      0.00000000	     13.03055275	    -16.87104472	      5.43356972	     49.47749070	     45.42053259	      0.00000000	      0.00000000
     17.47100000	     -2.70876003	     -4.06659513	      1.45234579	      1.01658219	      0.93206864	      0.41767736	     30.20821760	     -5.35167465	     -5.11897220	     60.29617066	     60.29617066	      0.46139138	    -15.58882253	      1.40640661	     13.86069493	     -5.63316136	     -6.08891441	     22.57805884	     22.57805884	     13.02692115	    -13.00189197	     -0.48118442	    -11.14448718	      3.70253095	      2.12325103	      6.37256113	    -13.95961023	     -5.62341097	     24.02753810	     46.46004125	      0.00000000	      0.00000000	     13.25953114	    -16.97575054	      5.36843565	     49.93998716	     45.44032101	      0.00000000	      0.00000000
     17.48450000	     -2.86562596	     -4.08795685	      0.94162905	      1.01618105	      0.93214762	      0.41812979	     30.70564369	     -5.25118564	     -5.33408417	     57.96367162	     57.96367162	      0.88832791	    -15.52535872	      1.51980518	     13.42865773	     -5.71106995	     -6.45269057	     22.28656026	     22.28656026	     13.24096444	    -13.13176959	     -0.46347421	    -11.14024708	      3.84965016	      2.17238815	      5.70675422	    -14.46826875	     -5.76651626	     23.58606835	     46.48893113	      0.00000000	      0.00000000	     13.51968352	    -17.04261203	      5.30576693	     50.56733577	     45.46107065	      0.00000000	      0.00000000
     17.49800000	     -2.95478625	     -4.08374277	      0.40302762	      1.01586026	      0.93231153	      0.41882215	     30.90207661	     -5.11022938	     -5.57890197	     55.05285558	     55.05285558	      0.91904380	    -15.52435354	      0.22180566	     12.85567384	     -5.78997574	     -6.94417024	     21.88528978	     21.88528978	     13.37244571	    -13.11864496	     -0.64319204	    -11.32551316	      3.91325544	      2.16812016	      5.63351167	    -14.66610323	     -7.75108044	     22.16962368	     46.76932003	      0.00000000	      0.00000000	     12.90320336	    -17.45799827	      5.38678046	     53.62685769	     45.59282741	      0.00000000	      0.00000000
     17.51150000	     -3.17984792	     -4.12428802	     -0.11646063	      1.01551007	      0.93225749	      0.41971189	     31.10884362	     -4.89837981	     -5.91916063	     51.78945169	     51.78945169	      1.47462302	    -14.88847547	      0.20558220	     12.48153394	     -5.91320016	     -7.32821328	     21.56722415	     21.56722415	     13.54958346	    -13.18271207	     -0.65244074	    -11.29542677	      4.07714227	      2.27922187	      5.13266185	    -15.06246414	     -7.95180034	     21.82258219	     46.80330950	      0.00000000	      0.00000000	     13.11295436	    -17.42534262	      5.27726180	     54.13379130	     45.62128451	      0.00000000	      0.00000000
     17.52500000	     -3.38561349	     -4.13781540	     -0.63910064	      1.01524126	      0.93224484	      0.42075730	     31.08452473	     -4.66087516	     -6.28846257	     48.07020871	     48.07020871	      2.01020295	    -13.82270567	     -0.06862892	     12.04243364	     -6.01683231	     -7.76942116	     21.17856949	     21.17856949	     13.70147995	    -13.13875848	     -0.70822314	    -11.32654787	      4.20033090	      2.46592203	      4.67823840	    -15.42435835	     -8.20635670	     21.49377626	     46.84307779	      0.00000000	      0.00000000	     13.24006041	    -17.33870137	      5.15508356	     54.95420060	     45.65541955	      0.00000000	      0.00000000
     17.53850000	     -3.68284730	     -4.06703365	     -1.19593489	      1.01508143	      0.93200773	      0.42208596	     30.90948786	     -4.45961956	     -6.71415463	     43.83506149	     43.83506149	      1.86608035	    -12.50019587	     -2.40937567	     11.63492532	     -6.06692988	     -8.39035293	     20.68829674	     20.68829674	     13.71655079	    -12.98316706	     -1.13676638	    -11.27945741	      4.12914376	      2.44125040	      4.48015220	    -15.52464783	     -9.33756344	     21.17151041	     46.98345128	      0.00000000	      0.00000000	     12.67739775	    -17.51802398	      4.70864372	     57.16893732	     45.77542207	      0.00000000	      0.00000000
     17.55200000	     -4.08552760	     -4.10111670	     -1.71850718	      1.01498564	      0.93164902	      0.42369298	     30.68683999	     -3.96605666	     -6.95931398	     39.37417647	     39.37417647	      2.29003708	    -10.85325160	     -2.23090050	     11.40501826	     -6.21428506	     -8.77202291	     20.31767930	     20.31767930	     13.85432491	    -13.07791080	     -1.15093116	    -11.02909508	      4.22470271	      2.45386670	      4.24141111	    -15.65159435	     -9.44591566	     21.03951713	     46.99946805	      0.00000000	      0.00000000	     12.72544535	    -17.48487426	      4.65868742	     57.45701703	     45.79044330	      0.00000000	      0.00000000
